<svg xmlns="http://www.w3.org/2000/svg" viewBox="0 10.6899995803833 213.47999572753906 34.62000274658203" data-asc="0.89111328125" width="213.47999572753906" height="34.62000274658203"><defs/><g fill="#ffffff"><g transform="translate(0, 0)"><path d="M32.93 44.56L24.10 44.56L12.89 29.08Q11.65 29.13 10.86 29.13Q10.55 29.13 10.18 29.11Q9.81 29.10 9.42 29.08L9.42 38.70Q9.42 41.82 10.11 42.58Q11.04 43.65 12.89 43.65L14.18 43.65L14.18 44.56L0 44.56L0 43.65L1.25 43.65Q3.34 43.65 4.25 42.29Q4.76 41.53 4.76 38.70L4.76 17.31Q4.76 14.18 4.08 13.43Q3.13 12.35 1.25 12.35L0 12.35L0 11.45L12.06 11.45Q17.33 11.45 19.84 12.22Q22.34 12.99 24.08 15.05Q25.83 17.11 25.83 19.97Q25.83 23.02 23.84 25.27Q21.85 27.51 17.68 28.44L24.51 37.94Q26.86 41.21 28.54 42.29Q30.22 43.36 32.93 43.65L32.93 44.56M9.42 27.54Q9.89 27.54 10.23 27.55Q10.57 27.56 10.79 27.56Q15.53 27.56 17.93 25.51Q20.34 23.46 20.34 20.29Q20.34 17.19 18.40 15.25Q16.46 13.31 13.26 13.31Q11.84 13.31 9.42 13.77L9.42 27.54ZM47.92 43.65L47.92 44.56L33.74 44.56L33.74 43.65L34.91 43.65Q36.96 43.65 37.89 42.46Q38.48 41.67 38.48 38.70L38.48 17.31Q38.48 14.79 38.16 13.99Q37.92 13.38 37.16 12.94Q36.08 12.35 34.91 12.35L33.74 12.35L33.74 11.45L47.92 11.45L47.92 12.35L46.73 12.35Q44.70 12.35 43.77 13.55Q43.16 14.33 43.16 17.31L43.16 38.70Q43.16 41.21 43.48 42.02Q43.73 42.63 44.51 43.07Q45.56 43.65 46.73 43.65L47.92 43.65ZM79.25 10.69L80.00 21.95L79.25 21.95Q77.73 16.89 74.93 14.67Q72.12 12.45 68.19 12.45Q64.89 12.45 62.23 14.12Q59.57 15.80 58.04 19.46Q56.52 23.12 56.52 28.56Q56.52 33.06 57.96 36.35Q59.40 39.65 62.29 41.41Q65.19 43.16 68.90 43.16Q72.12 43.16 74.58 41.78Q77.05 40.41 80.00 36.30L80.76 36.79Q78.27 41.21 74.95 43.26Q71.63 45.31 67.07 45.31Q58.84 45.31 54.32 39.21Q50.95 34.67 50.95 28.52Q50.95 23.56 53.17 19.41Q55.40 15.26 59.29 12.98Q63.18 10.69 67.80 10.69Q71.39 10.69 74.88 12.45Q75.90 12.99 76.34 12.99Q77.00 12.99 77.49 12.52Q78.13 11.87 78.39 10.69L79.25 10.69ZM92.77 26.81L108.15 26.81L108.15 17.33Q108.15 14.79 107.84 13.99Q107.59 13.38 106.81 12.94Q105.76 12.35 104.59 12.35L103.42 12.35L103.42 11.45L117.58 11.45L117.58 12.35L116.41 12.35Q115.23 12.35 114.18 12.92Q113.40 13.31 113.12 14.10Q112.84 14.89 112.84 17.33L112.84 38.70Q112.84 41.21 113.16 42.02Q113.40 42.63 114.16 43.07Q115.23 43.65 116.41 43.65L117.58 43.65L117.58 44.56L103.42 44.56L103.42 43.65L104.59 43.65Q106.62 43.65 107.54 42.46Q108.15 41.67 108.15 38.70L108.15 28.61L92.77 28.61L92.77 38.70Q92.77 41.21 93.09 42.02Q93.33 42.63 94.12 43.07Q95.17 43.65 96.34 43.65L97.53 43.65L97.53 44.56L83.35 44.56L83.35 43.65L84.52 43.65Q86.57 43.65 87.50 42.46Q88.09 41.67 88.09 38.70L88.09 17.33Q88.09 14.79 87.77 13.99Q87.52 13.38 86.77 12.94Q85.69 12.35 84.52 12.35L83.35 12.35L83.35 11.45L97.53 11.45L97.53 12.35L96.34 12.35Q95.17 12.35 94.12 12.92Q93.36 13.31 93.07 14.10Q92.77 14.89 92.77 17.33L92.77 26.81ZM147.53 11.45L147.90 19.21L146.97 19.21Q146.70 17.16 146.24 16.28Q145.48 14.87 144.23 14.20Q142.97 13.53 140.92 13.53L136.25 13.53L136.25 38.82Q136.25 41.87 136.91 42.63Q137.84 43.65 139.77 43.65L140.92 43.65L140.92 44.56L126.88 44.56L126.88 43.65L128.05 43.65Q130.15 43.65 131.03 42.38Q131.57 41.60 131.57 38.82L131.57 13.53L127.59 13.53Q125.27 13.53 124.29 13.87Q123.02 14.33 122.12 15.65Q121.22 16.97 121.04 19.21L120.12 19.21L120.51 11.45L147.53 11.45ZM159.59 13.26L159.59 26.34L166.87 26.34Q169.70 26.34 170.65 25.49Q171.92 24.37 172.07 21.53L172.97 21.53L172.97 33.06L172.07 33.06Q171.73 30.64 171.39 29.96Q170.95 29.10 169.95 28.61Q168.95 28.13 166.87 28.13L159.59 28.13L159.59 39.04Q159.59 41.24 159.79 41.71Q159.99 42.19 160.47 42.47Q160.96 42.75 162.33 42.75L167.94 42.75Q170.75 42.75 172.02 42.36Q173.29 41.97 174.46 40.82Q175.98 39.31 177.56 36.25L178.54 36.25L175.68 44.56L150.17 44.56L150.17 43.65L151.34 43.65Q152.51 43.65 153.56 43.09Q154.35 42.70 154.63 41.92Q154.91 41.14 154.91 38.72L154.91 17.21Q154.91 14.06 154.27 13.33Q153.39 12.35 151.34 12.35L150.17 12.35L150.17 11.45L175.68 11.45L176.05 18.70L175.10 18.70Q174.58 16.09 173.96 15.11Q173.34 14.14 172.12 13.62Q171.14 13.26 168.68 13.26L159.59 13.26ZM213.48 44.56L204.64 44.56L193.43 29.08Q192.19 29.13 191.41 29.13Q191.09 29.13 190.72 29.11Q190.36 29.10 189.97 29.08L189.97 38.70Q189.97 41.82 190.65 42.58Q191.58 43.65 193.43 43.65L194.73 43.65L194.73 44.56L180.54 44.56L180.54 43.65L181.79 43.65Q183.89 43.65 184.79 42.29Q185.30 41.53 185.30 38.70L185.30 17.31Q185.30 14.18 184.62 13.43Q183.67 12.35 181.79 12.35L180.54 12.35L180.54 11.45L192.60 11.45Q197.88 11.45 200.38 12.22Q202.88 12.99 204.63 15.05Q206.37 17.11 206.37 19.97Q206.37 23.02 204.38 25.27Q202.39 27.51 198.22 28.44L205.05 37.94Q207.40 41.21 209.08 42.29Q210.77 43.36 213.48 43.65L213.48 44.56M189.97 27.54Q190.43 27.54 190.77 27.55Q191.11 27.56 191.33 27.56Q196.07 27.56 198.47 25.51Q200.88 23.46 200.88 20.29Q200.88 17.19 198.94 15.25Q197.00 13.31 193.80 13.31Q192.38 13.31 189.97 13.77L189.97 27.54Z"/></g></g></svg>